<?xml version="1.0" standalone="no"?>
<!DOCTYPE svg PUBLIC "-//W3C//DTD SVG 20010904//EN"
 "http://www.w3.org/TR/2001/REC-SVG-20010904/DTD/svg10.dtd">
<svg version="1.0" xmlns="http://www.w3.org/2000/svg"
 width="1024.000000pt" height="1024.000000pt" viewBox="0 0 1024.000000 1024.000000"
 preserveAspectRatio="xMidYMid meet">

<g transform="translate(0.000000,1024.000000) scale(0.100000,-0.100000)"
fill="#000000" stroke="none">
<path d="M6018 6201 c-93 -31 -448 -260 -512 -331 -34 -38 -56 -92 -56 -138 0
-22 12 -17 189 74 124 64 195 95 206 90 15 -5 17 -16 11 -79 -3 -39 -9 -138
-12 -219 -4 -80 -10 -151 -14 -158 -4 -7 -108 -42 -231 -79 l-223 -66 -13 -45
c-24 -82 -64 -334 -65 -412 -1 -60 3 -82 15 -96 10 -11 57 -28 116 -42 l98
-23 21 -48 c30 -71 65 -89 175 -89 105 0 136 13 171 72 l25 42 312 -3 c172 -2
318 -5 324 -7 7 -3 19 -22 28 -44 18 -48 50 -69 114 -77 86 -10 174 37 203
106 12 31 19 34 115 46 76 10 114 30 129 67 25 60 48 361 53 708 7 461 -5 542
-93 640 -60 66 -104 81 -289 96 -195 17 -760 27 -797 15z m612 -201 c377 -12
367 -10 407 -91 26 -50 43 -229 43 -445 0 -105 -3 -125 -19 -145 l-19 -24
-462 0 -462 0 -24 28 c-24 28 -24 29 -23 255 0 280 8 362 35 399 25 33 51 41
129 36 33 -1 211 -8 395 -13z m-402 -900 c79 -49 65 -159 -26 -197 -69 -29
-152 30 -152 109 0 32 7 47 34 74 41 41 92 46 144 14z m821 -28 c72 -79 -68
-204 -146 -130 -34 32 -32 96 5 130 46 44 100 44 141 0z m-1353 -50 c56 -37
56 -264 0 -329 -26 -30 -46 -27 -72 12 -19 30 -30 148 -20 217 12 79 54 125
92 100z"/>
<path d="M1222 5742 c-101 -582 -170 -983 -177 -1029 l-7 -43 166 0 c91 0 166
3 166 8 0 8 136 804 204 1190 l42 242 -165 0 -166 0 -63 -368z"/>
<path d="M2990 5858 c-12 -68 -23 -129 -25 -135 -3 -9 -30 -13 -89 -13 l-84 0
-16 -92 c-9 -51 -19 -103 -21 -115 -5 -22 -3 -23 81 -23 84 0 86 0 81 -22 -3
-13 -25 -126 -48 -253 -53 -289 -57 -388 -17 -455 15 -27 42 -54 66 -67 60
-34 172 -47 293 -35 56 6 103 13 105 15 3 2 11 42 19 88 8 46 17 97 21 112 l6
28 -59 -6 c-45 -5 -66 -2 -93 12 -72 37 -74 75 -21 368 l37 210 122 3 121 3 7
37 c3 20 12 68 20 105 8 38 14 73 14 78 0 5 -52 9 -120 9 -90 0 -120 3 -120
13 1 6 11 67 24 135 l23 122 -153 0 -152 0 -22 -122z"/>
<path d="M2205 5716 c-71 -19 -100 -32 -152 -67 l-45 -31 7 46 7 46 -144 0
-144 0 -92 -517 c-50 -285 -90 -518 -89 -520 5 -4 298 -6 302 -1 3 3 28 130
55 283 69 381 78 412 132 462 78 73 233 70 272 -6 21 -40 20 -98 -4 -223 -30
-160 -90 -503 -90 -516 0 -9 42 -12 154 -12 l155 0 10 53 c6 28 22 115 36 192
13 77 38 212 55 300 48 254 39 359 -37 437 -56 58 -121 81 -238 84 -62 2 -119
-2 -150 -10z"/>
<path d="M3923 5711 c-86 -24 -129 -45 -210 -104 -165 -122 -261 -336 -251
-560 7 -159 60 -267 165 -336 79 -52 140 -66 293 -66 128 1 139 2 215 33 114
45 207 119 272 215 29 43 53 82 53 87 0 6 -63 10 -157 10 l-158 -1 -20 -32
c-12 -19 -43 -44 -75 -60 -47 -24 -64 -28 -117 -25 -104 6 -163 68 -163 169
l0 59 352 2 352 3 8 35 c61 283 -11 485 -199 560 -83 33 -259 38 -360 11z
m227 -239 c34 -25 60 -79 60 -124 l0 -38 -201 0 -200 0 7 23 c18 59 86 124
156 149 63 22 140 18 178 -10z"/>
<path d="M5136 5704 c-57 -18 -88 -36 -135 -78 l-33 -31 6 40 c4 22 9 48 12
58 5 16 -6 17 -140 17 -164 0 -147 10 -166 -100 -6 -36 -47 -262 -91 -504 -43
-241 -79 -440 -79 -442 0 -2 69 -4 154 -4 l155 0 10 53 c6 28 27 140 46 247
58 316 73 359 143 422 54 48 98 61 193 56 l77 -5 26 137 c14 74 26 139 26 143
0 13 -154 6 -204 -9z"/>
</g>
</svg>
